<svg xmlns="http://www.w3.org/2000/svg" viewBox="0 0 72.29 77.07"><title>Asset 1</title><path d="M23,33.72v.05a1.76,1.76,0,0,0-.37.08,1.17,1.17,0,0,1-1-.1,2.31,2.31,0,0,0-.87-.25c-.69-.09-1-.56-1.3-1.11a11.6,11.6,0,0,1-.72-2.18,6.67,6.67,0,0,1-.1-.91,3.69,3.69,0,0,0-.25-.86,1.75,1.75,0,0,1-.19-.39.35.35,0,0,1,.07-.24A8.05,8.05,0,0,0,18,26.4c-.18-.67-.34-1.36-.5-2A6.24,6.24,0,0,1,17.54,23a2.38,2.38,0,0,1,.37-1.16,3.24,3.24,0,0,1,.17-.32l.28.07a3.57,3.57,0,0,1,.45.5,1.34,1.34,0,0,0,1.08.59,5.62,5.62,0,0,0,1.16,0v.11a14.43,14.43,0,0,0,0,2.08,8.62,8.62,0,0,1,.17.91,25.45,25.45,0,0,0,.54,3c.07.42.12.84.21,1.25.14.65.28,1.31.46,1.95S22.81,33.15,23,33.72Z" style="fill:#b0e1e6"/><path d="M29.06,32.66l0,.08-.23,0c-.84.19-1.69.37-2.53.58-.64.16-1.26.38-1.91.52l-.17,0a4.28,4.28,0,0,1-.61-.09,3.35,3.35,0,0,0-.63,0v-.05c-.19-.57-.41-1.14-.57-1.72s-.32-1.3-.46-1.95c-.09-.41-.14-.83-.21-1.25a25.45,25.45,0,0,1-.54-3,8.62,8.62,0,0,0-.17-.91,14.43,14.43,0,0,1,0-2.08v-.11l1.12-.12a6.14,6.14,0,0,0,1.25-.47,14.47,14.47,0,0,1,1.95-.44,3.13,3.13,0,0,1,1,.15l.05,0a.73.73,0,0,0,0,.58c.24.76.52,1.51.74,2.28.25.92.44,1.85.67,2.78s.42,1.65.61,2.49c.13.56.22,1.13.34,1.7C28.85,32,29,32.33,29.06,32.66Z" style="fill:#f9f57f"/><path d="M36.32,30.3v.05a1.78,1.78,0,0,0-.66.29,22.27,22.27,0,0,1-3.16,1.19c-.7.22-1.4.46-2.11.66-.38.11-.78.14-1.16.22a.4.4,0,0,0-.15,0l0-.08c-.1-.33-.21-.66-.29-1-.12-.57-.21-1.14-.34-1.7-.19-.84-.41-1.66-.61-2.49s-.42-1.86-.67-2.78c-.22-.77-.5-1.52-.74-2.28a.73.73,0,0,1,0-.58.38.38,0,0,1,.13-.12A4.16,4.16,0,0,1,28,21c.59-.1,1.17-.26,1.74-.41,1.13-.3,2.26-.59,3.39-.9l0,.07a3.28,3.28,0,0,0,.22.79,3.16,3.16,0,0,1,.32,1c.08.46.21.91.33,1.37q.26.93.54,1.86c.2.7.44,1.38.61,2.08s.3,1.47.47,2.19a3,3,0,0,0,.33.67C36.09,29.94,36.21,30.12,36.32,30.3Z" style="fill:#7fca89"/><path d="M43,27.73l0,.08c-.62.21-1.22.48-1.84.69a30.14,30.14,0,0,1-3.36,1.27,2.27,2.27,0,0,0-.79.49.45.45,0,0,1-.5.12l-.21,0V30.3c-.11-.18-.23-.36-.33-.54a3,3,0,0,1-.33-.67c-.17-.72-.28-1.47-.47-2.19s-.41-1.38-.61-2.08S34.21,23.58,34,23c-.12-.46-.25-.91-.33-1.37a3.16,3.16,0,0,0-.32-1,3.28,3.28,0,0,1-.22-.79l0-.07.47-.14c.92-.25,1.83-.54,2.74-.83.37-.11.71-.32,1.08-.4a6.34,6.34,0,0,1,1.82-.42,1.79,1.79,0,0,0,.39,0l0,.06c.34.89.7,1.77,1,2.66.2.5.36,1,.54,1.53s.33.85.46,1.29.18.9.34,1.32c.27.72.18,1.55.69,2.21A2.9,2.9,0,0,1,43,27.73Z" style="fill:#b0e1e6"/><path d="M57.35,19.8a.8.8,0,0,1-.13,1c-.49.46-.89,1.08-1.58,1.27a5.07,5.07,0,0,0-.65.24l-.05-.1a10,10,0,0,0-.64-4c-.16-.33-.34-.63-.5-1-.58-1.23-1.17-2.45-1.73-3.69-.11-.24-.26-.2-.42-.21l-.06-.09c.74-.47,1.73-1.1,1.8-2,.09.32.37.44.55.66a2.57,2.57,0,0,1,.38.49c.31.55.61,1.11.91,1.66.13.25.26.49.37.75.23.49.45,1,.67,1.49l.07.09c0,.06.1.11.09.16a3.85,3.85,0,0,0,.31,1.61A13.14,13.14,0,0,0,57.35,19.8Z" style="fill:#7fca89"/><path d="M54.94,22.21l.05.1a14.39,14.39,0,0,0-2.12,1.31,2.64,2.64,0,0,1-.71.36L52,24a3.93,3.93,0,0,0-1.16.49c-.22.14-.45.27-.69.4l0,0c-.4-.91-.83-1.81-1.19-2.74S48.27,20,47.84,19s-1-1.89-1.44-2.83l0-.12a3.11,3.11,0,0,0,.67-.31,20.33,20.33,0,0,1,2.1-1,11.26,11.26,0,0,0,1.9-1,5.35,5.35,0,0,1,.56-.38l.06.09c.16,0,.31,0,.42.21.56,1.24,1.15,2.46,1.73,3.69.16.33.34.63.5,1A10,10,0,0,1,54.94,22.21Z" style="fill:#f882bf"/><path d="M50.17,24.86l0,0a22.21,22.21,0,0,1-2.88,1.22c-.57.2-1.1.5-1.66.73a18.79,18.79,0,0,1-2.16.82l-.47.14,0-.08a2.9,2.9,0,0,0-.26-.7c-.51-.66-.42-1.49-.69-2.21-.16-.42-.21-.89-.34-1.32s-.3-.86-.46-1.29-.34-1-.54-1.53c-.33-.89-.69-1.77-1-2.66l0-.06.06,0c.45-.43,1.06-.39,1.59-.56,1.11-.35,2.25-.57,3.35-.94.55-.19,1.15-.23,1.71-.4l0,.12c.48.94,1,1.86,1.44,2.83s.73,2.11,1.14,3.14S49.77,24,50.17,24.86Z" style="fill:#966db3"/><path d="M53,11c.15,0,.37.16.4.29-.07.9-1.06,1.53-1.8,2a5.35,5.35,0,0,0-.56.38,11.26,11.26,0,0,1-1.9,1,20.33,20.33,0,0,0-2.1,1,3.11,3.11,0,0,1-.67.31c-.56.17-1.16.21-1.71.4-1.1.37-2.24.59-3.35.94-.53.17-1.14.13-1.59.56l-.06,0a1.79,1.79,0,0,1-.39,0,6.34,6.34,0,0,0-1.82.42c-.37.08-.71.29-1.08.4-.91.29-1.82.58-2.74.83l-.47.14c-1.13.31-2.26.6-3.39.9-.57.15-1.15.31-1.74.41a4.16,4.16,0,0,0-1.48.68.38.38,0,0,0-.13.12l-.05,0a3.13,3.13,0,0,0-1-.15,14.47,14.47,0,0,0-1.95.44,6.14,6.14,0,0,1-1.25.47l-1.12.12a5.62,5.62,0,0,1-1.16,0,1.34,1.34,0,0,1-1.08-.59,3.57,3.57,0,0,0-.45-.5l-.28-.07a1.57,1.57,0,0,1,.2-.3,9.78,9.78,0,0,1,1.34-1.52c.77-.63,1.67-1.09,2.46-1.69a24.51,24.51,0,0,1,2.68-1.3,12.19,12.19,0,0,1,2-.76c1.15-.41,2.29-.81,3.44-1.2s2.4-.82,3.61-1.2c1-.3,1.9-.58,2.86-.83,1.59-.42,3.18-.81,4.77-1.21.65-.16,1.31-.15,2-.35a3,3,0,0,0,1-.34c.13-.1.35-.07.53-.1l.09,0a2,2,0,0,1,.7-.29c.31-.06.63,0,.95-.06a1.36,1.36,0,0,0,.25-.07,2.63,2.63,0,0,1,1-.23,2,2,0,0,0,.92-.1,2.34,2.34,0,0,1,1.94.46,2,2,0,0,0,1,.33A8.78,8.78,0,0,1,53,11Z" style="fill:#fc9562"/><path d="M29.55,49.24l-.12.06a1.85,1.85,0,0,1-1.16-.08,7.07,7.07,0,0,0-2.78-.5A11.55,11.55,0,0,1,24,48.55c-.71,0-1.41-.09-2.12-.07a10.81,10.81,0,0,1-2.2,0c-.54-.1-1.1-.1-1.65-.18s-1.14-.2-1.7-.33a4.71,4.71,0,0,1-1.71-1,6.29,6.29,0,0,1-2.49-3.29,1,1,0,0,1,.05-.87,5.93,5.93,0,0,1,.63-.86,1.64,1.64,0,0,1,2.07-.18,6.18,6.18,0,0,0,.87.38c.34.12.69.22,1,.33a3.55,3.55,0,0,0,1.83.31.78.78,0,0,0,.65-.89,8.71,8.71,0,0,0-.33-1.24,3.29,3.29,0,0,0-1-1.78c-.46-.35-.93-.69-1.41-1a5.66,5.66,0,0,0-1.25-.69A21.4,21.4,0,0,1,12.38,36a12.72,12.72,0,0,0-1.94-.68c-.67-.23-1.34-.45-2-.71s-1.5-.7-2.27-1a7.68,7.68,0,0,1-2.46-1.35A14.48,14.48,0,0,1,2.4,31a12.31,12.31,0,0,1-.84-1.2c-.25-.38-.5-.77-.74-1.16-.07-.11,0-.29-.14-.37a1.22,1.22,0,0,1-.32-1,1.14,1.14,0,0,0,0-.37,1.51,1.51,0,0,1,.21-1.58c.18-.25.32-.53.51-.78.31-.43.45-1,1.15-1,.06,0,.11-.09.17-.11a3.15,3.15,0,0,1,.87-.28,10.11,10.11,0,0,1,1.74,0A2.48,2.48,0,0,1,6,23.43a27.87,27.87,0,0,1,2.41,1.44c.53.36,1,.81,1.5,1.19.92.68,1.84,1.36,2.78,2a3,3,0,0,0,2.41.52c.3-.07.64-.21,1,.09a.62.62,0,0,0,.62,0c.36-.47.9-.46,1.39-.6h.05a1.75,1.75,0,0,0,.19.39,3.69,3.69,0,0,1,.25.86,6.67,6.67,0,0,0,.1.91,11.6,11.6,0,0,0,.72,2.18c.32.55.61,1,1.3,1.11a2.31,2.31,0,0,1,.87.25,1.17,1.17,0,0,0,1,.1,1.76,1.76,0,0,1,.37-.08,3.35,3.35,0,0,1,.63,0,4.28,4.28,0,0,0,.61.09l.09.08c0,.44.07.89.13,1.33s.19,1.19.33,1.78c.26,1,.53,2.08.84,3.11.22.74.49,1.48.78,2.2.42,1,.85,2.09,1.33,3.11s1,1.82,1.48,2.74a1.12,1.12,0,0,1,.17.41A2,2,0,0,0,29.55,49.24Z" style="fill:#fa939f"/><path d="M72.1,24.87A7.8,7.8,0,0,1,72,26.23a5.58,5.58,0,0,1-1,2.09,6.93,6.93,0,0,1-1.66,1.54,10.4,10.4,0,0,1-2.87,1.65,12.2,12.2,0,0,0-1.42.86,11.8,11.8,0,0,0-1.54,1.2A18.7,18.7,0,0,0,61,36.78c-.08.16-.18.32-.25.49a2.54,2.54,0,0,0-.17.46,1.28,1.28,0,0,1-.58.87l0,0a5.92,5.92,0,0,1-3.09-2.54c-.21-.39-.52-.73-.69-1.13-.25-.57-.37-1.18-.66-1.75a24.63,24.63,0,0,1-.93-2.39c-.12-.32-.27-.63-.37-1-.17-.59-.31-1.19-.46-1.78-.05-.17-.11-.33-.17-.5l-.7-2.32c-.13-.43-.25-.86-.37-1.29h-.34a2.64,2.64,0,0,0,.71-.36A14.39,14.39,0,0,1,55,22.31a5.07,5.07,0,0,1,.65-.24c.69-.19,1.09-.81,1.58-1.27a.8.8,0,0,0,.13-1,13.14,13.14,0,0,1-.61-1.62,3.85,3.85,0,0,1-.31-1.61c0-.05,0-.1-.09-.16h0c.42-.13.62-.53.94-.76a5,5,0,0,0,1.24-1.45A15.11,15.11,0,0,0,60,10.64a8,8,0,0,0,.25-1.08,11.27,11.27,0,0,0,.16-1.41c0-.29-.14-.58-.15-.87a16.83,16.83,0,0,1,0-1.74,11.46,11.46,0,0,1,.25-1.66c.14-.63.36-1.25.53-1.87A2.12,2.12,0,0,1,61.75.89c.28-.24.5-.6,1-.59a4.32,4.32,0,0,0,.62,0,5,5,0,0,1,2.33.13,5.43,5.43,0,0,1,2.91,2.56,6.48,6.48,0,0,1,.86,2.55,3.45,3.45,0,0,0,.12.46l0,0c-.18.11-.07.32-.06.46a13.76,13.76,0,0,1,0,3.57,7.83,7.83,0,0,0-.13,1.36,6.23,6.23,0,0,1-1.08,3.45c-.65,1.08-1.25,2.2-1.92,3.27a12.09,12.09,0,0,1-1.24,1.61,10.18,10.18,0,0,0-1.07,1.71,18.15,18.15,0,0,0-1,1.63,7.35,7.35,0,0,0-.83,2.19,1.61,1.61,0,0,0,1,1.77.76.76,0,0,0,.61,0c.67-.42,1.3-.89,2-1.31.93-.61,1.86-1.23,2.83-1.78a3.51,3.51,0,0,1,2-.38A1.7,1.7,0,0,1,72.1,24.87Z" style="fill:#f9f57f"/><path d="M49.64,37.62l.08,0,.16-.13c.3-.18.69-.29.78-.66a6,6,0,0,0,.23-1.62,2.71,2.71,0,0,0-.43-1.07,12.59,12.59,0,0,0-.79-1.33c-.22-.3-.53-.55-.78-.83a.47.47,0,0,0-.66-.08A1.88,1.88,0,0,0,47.39,33a3.67,3.67,0,0,0,.1,1.71,4,4,0,0,0,1.45,2.18A2.82,2.82,0,0,1,49.64,37.62ZM32.73,43.18l.06,0a2.16,2.16,0,0,0,1-2.66c-.14-.46-.21-1-.39-1.4a3.47,3.47,0,0,0-.61-1c-.35-.39-.74-.75-1.12-1.12a.77.77,0,0,0-.82-.2c-.32.1-.41.36-.48.69a4.21,4.21,0,0,0,.25,2.25,4.72,4.72,0,0,0,.92,1.58,5.85,5.85,0,0,1,.55.9,2.53,2.53,0,0,0,.34.58A1.27,1.27,0,0,1,32.73,43.18ZM69.08,49a2.48,2.48,0,0,1,.08.9,22.33,22.33,0,0,1,0,3c-.07.31,0,.65-.06,1s-.29.86-.41,1.29a8.93,8.93,0,0,1-2.36,3.36c-.07.08-.2.12-.25.21-.35.72-.69,1.44-1,2.15a14.06,14.06,0,0,0-.69,3.2,2.14,2.14,0,0,0,0,.87,4.75,4.75,0,0,0,.53,1.91,2.77,2.77,0,0,1,.41.87,5.15,5.15,0,0,0,1.35,2.14,16.67,16.67,0,0,1,1.9,2.38,2.23,2.23,0,0,1,.24,2.16,1,1,0,0,1-.82.55,5.17,5.17,0,0,1-1.66.11c-.29,0-.58,0-.87-.08a4,4,0,0,1-3.95-3,6.39,6.39,0,0,1-.31-.83,12.44,12.44,0,0,1-.1-1.37l0-.08a4,4,0,0,0-.66-1.58.61.61,0,0,0-.79-.24,2.94,2.94,0,0,0-1.83,2,12.22,12.22,0,0,0-.08,4.35,1.68,1.68,0,0,1-1,2,8.83,8.83,0,0,1-3.52.72,1.38,1.38,0,0,1-1.42-1.08,8.38,8.38,0,0,1-.33-3A2.32,2.32,0,0,0,49,70.62a2.7,2.7,0,0,0-2.25,2,11.82,11.82,0,0,1-1.29,2.43,2.65,2.65,0,0,1-1.6,1.1,2.32,2.32,0,0,1-2.2-.54,3.37,3.37,0,0,1-1-1.66c-.05-.14,0-.34-.13-.45A3.1,3.1,0,0,1,39.94,72a2.71,2.71,0,0,1,.31-1.82,4.46,4.46,0,0,1,1.46-1.7,4.85,4.85,0,0,1,1.11-.57,8.78,8.78,0,0,0,1.26-.71,23.66,23.66,0,0,0,3.68-2.51,3.61,3.61,0,0,0,1.32-2.14c.08-.43.22-.84.28-1.29a3.48,3.48,0,0,0-.52-2.19,3.61,3.61,0,0,0-1.52-1.55c-.42-.22-.76-.59-1.18-.81a2,2,0,0,0-1-.21c-1.55.11-3.09.33-4.64.38a8.07,8.07,0,0,1-2.16-.36A14.55,14.55,0,0,1,36.53,56a11.07,11.07,0,0,1-2.65-1.67A12,12,0,0,1,32,52.6a9.3,9.3,0,0,1-1.23-1.68A3.81,3.81,0,0,0,30,49.85a2,2,0,0,1-.45-.61,2,2,0,0,1-.16-.57,1.12,1.12,0,0,0-.17-.41c-.49-.92-1-1.81-1.48-2.74s-.91-2.07-1.33-3.11c-.29-.72-.56-1.46-.78-2.2-.31-1-.58-2.07-.84-3.11-.14-.59-.24-1.19-.33-1.78s-.09-.89-.13-1.33l-.09-.08.17,0c.65-.14,1.27-.36,1.91-.52.84-.21,1.69-.39,2.53-.58l.23,0a.4.4,0,0,1,.15,0c.38-.08.78-.11,1.16-.22.71-.2,1.41-.44,2.11-.66a22.27,22.27,0,0,0,3.16-1.19,1.78,1.78,0,0,1,.66-.29l.21,0a.45.45,0,0,0,.5-.12,2.27,2.27,0,0,1,.79-.49,30.14,30.14,0,0,0,3.36-1.27c.62-.21,1.22-.48,1.84-.69l.47-.14a18.79,18.79,0,0,0,2.16-.82c.56-.23,1.09-.53,1.66-.73a22.21,22.21,0,0,0,2.88-1.22c.24-.13.47-.26.69-.4A3.93,3.93,0,0,1,52,24l.12,0h.34c.12.43.24.86.37,1.29l.7,2.32c.06.17.12.33.17.5.15.59.29,1.19.46,1.78.1.33.25.64.37,1a24.63,24.63,0,0,0,.93,2.39c.29.57.41,1.18.66,1.75.17.4.48.74.69,1.13a5.92,5.92,0,0,0,3.09,2.54c.24.11.49.2.73.3a2.52,2.52,0,0,1,1,.67,13.3,13.3,0,0,0,1.24,1.13c.94.79,1.88,1.61,2.86,2.36a8.86,8.86,0,0,1,2.6,3.66A17.79,17.79,0,0,1,69.08,49Z" style="fill:#b8e176"/><path d="M53.55,77.07h-.32a1.55,1.55,0,0,1-1.58-1.21,8.33,8.33,0,0,1-.33-3,2,2,0,0,0-.71-1.5A2,2,0,0,0,49,70.79a2.51,2.51,0,0,0-2.11,1.91,10.73,10.73,0,0,1-1.16,2.23l-.15.23a2.8,2.8,0,0,1-1.7,1.18,2.49,2.49,0,0,1-2.35-.57A3.53,3.53,0,0,1,40.47,74a1,1,0,0,1,0-.22,1.06,1.06,0,0,0-.05-.18,2.74,2.74,0,0,1-.56-1.4c0-.08,0-.15,0-.22a2.88,2.88,0,0,1,.33-2,4.54,4.54,0,0,1,1.52-1.76,4.44,4.44,0,0,1,1.15-.59,2.68,2.68,0,0,0,.72-.39A4.33,4.33,0,0,1,44,67a22.26,22.26,0,0,0,3.64-2.49,3.36,3.36,0,0,0,1.26-2L49,62a6.41,6.41,0,0,0,.16-.76,3.3,3.3,0,0,0-.5-2.09,3.41,3.41,0,0,0-1.44-1.47,4,4,0,0,1-.62-.42,3.79,3.79,0,0,0-.56-.39,1.75,1.75,0,0,0-.89-.19l-1.84.16c-.92.09-1.87.19-2.82.22a7,7,0,0,1-1.81-.27l-.39-.09a14.27,14.27,0,0,1-1.84-.55,9.05,9.05,0,0,1-2.37-1.44l-.33-.25a11.66,11.66,0,0,1-1.88-1.73A9.2,9.2,0,0,1,30.63,51a3.46,3.46,0,0,0-.75-1,2.07,2.07,0,0,1-.67-1.28,1.28,1.28,0,0,0-.14-.35c-.17-.32-.34-.62-.52-.93-.33-.59-.67-1.2-1-1.83-.47-1-.87-2-1.33-3.12-.35-.85-.6-1.55-.8-2.21-.26-.89-.52-1.85-.83-3.12-.15-.61-.25-1.22-.34-1.8,0-.3-.07-.61-.09-.91,0-.14,0-.28,0-.42a.18.18,0,0,1,.36,0c0,.15,0,.29,0,.44a8.75,8.75,0,0,0,.09.88A17.58,17.58,0,0,0,25,37.06c.31,1.26.56,2.21.83,3.1a23,23,0,0,0,.78,2.18c.46,1.16.86,2.13,1.32,3.1.3.61.64,1.22,1,1.8l.51.94a1.28,1.28,0,0,1,.18.47,2.1,2.1,0,0,0,.15.52,1.93,1.93,0,0,0,.41.55A3.89,3.89,0,0,1,31,50.84a9,9,0,0,0,1.21,1.64A11.48,11.48,0,0,0,34,54.16l.32.24a9.09,9.09,0,0,0,2.28,1.4,14.76,14.76,0,0,0,1.8.53l.4.09a6.33,6.33,0,0,0,1.71.26c.93,0,1.88-.12,2.8-.21.6-.06,1.23-.12,1.84-.16a2.05,2.05,0,0,1,1.08.23,3.7,3.7,0,0,1,.62.41,3,3,0,0,0,.56.39A3.66,3.66,0,0,1,49,59a3.72,3.72,0,0,1,.55,2.31c0,.27-.11.54-.17.8s-.09.33-.12.5a3.75,3.75,0,0,1-1.38,2.24,23,23,0,0,1-3.71,2.52c-.16.09-.31.19-.47.3a3.32,3.32,0,0,1-.81.43,4.31,4.31,0,0,0-1.07.55,4.27,4.27,0,0,0-1.4,1.63,2.46,2.46,0,0,0-.29,1.7c0,.08,0,.16,0,.23a2.45,2.45,0,0,0,.48,1.24.68.68,0,0,1,.13.35q0,.09,0,.15a3.13,3.13,0,0,0,1,1.57,2.16,2.16,0,0,0,2,.52,2.4,2.4,0,0,0,1.51-1l.14-.23a10,10,0,0,0,1.13-2.15A2.86,2.86,0,0,1,49,70.44a2.5,2.5,0,0,1,2.69,2.43A8.08,8.08,0,0,0,52,75.75a1.21,1.21,0,0,0,1.26,1,8.68,8.68,0,0,0,3.42-.7h0a1.48,1.48,0,0,0,.88-1.78,12.32,12.32,0,0,1,.09-4.42,3.11,3.11,0,0,1,1.93-2.11.79.79,0,0,1,1,.29,4.64,4.64,0,0,1,.7,1.65.18.18,0,0,1-.13.21.18.18,0,0,1-.22-.12,4.06,4.06,0,0,0-.63-1.52.44.44,0,0,0-.57-.19A2.76,2.76,0,0,0,58,69.86a11.89,11.89,0,0,0-.08,4.3,1.85,1.85,0,0,1-1.12,2.17h0A9.81,9.81,0,0,1,53.55,77.07Z" style="fill:#422990"/><path d="M56.39,16.58a.17.17,0,0,1-.16-.12.17.17,0,0,1,.11-.23,1.23,1.23,0,0,0,.53-.41,2.66,2.66,0,0,1,.35-.32,4.85,4.85,0,0,0,1.2-1.4,15.2,15.2,0,0,0,1.44-3.49v0a6.54,6.54,0,0,0,.24-1.05,9.55,9.55,0,0,0,.16-1.39,1.68,1.68,0,0,0-.07-.41,3.11,3.11,0,0,1-.08-.44,15,15,0,0,1,0-1.77,9.6,9.6,0,0,1,.25-1.68c.09-.42.22-.83.34-1.23.06-.22.13-.43.19-.65a2.26,2.26,0,0,1,.72-1.2l.19-.18A1.12,1.12,0,0,1,62.7.13l.38,0,.23,0,.17,0a4.86,4.86,0,0,1,2.23.17,5.57,5.57,0,0,1,3,2.63,6.8,6.8,0,0,1,.88,2.63,1.8,1.8,0,0,0,.07.27s0,.1,0,.15a.17.17,0,0,1-.12.22A.18.18,0,0,1,69.37,6s0-.1,0-.14a1.39,1.39,0,0,1-.09-.35A6.42,6.42,0,0,0,68.41,3,5.21,5.21,0,0,0,65.58.55,4.51,4.51,0,0,0,63.51.41l-.17,0-.21,0a2.12,2.12,0,0,1-.44,0,.88.88,0,0,0-.62.35,1.34,1.34,0,0,1-.21.2,2,2,0,0,0-.61,1c-.06.22-.12.43-.19.65-.12.39-.24.8-.34,1.21a11.24,11.24,0,0,0-.24,1.63,16.45,16.45,0,0,0,0,1.72,1.72,1.72,0,0,0,.07.37,2.26,2.26,0,0,1,.08.51,12,12,0,0,1-.17,1.44,7.47,7.47,0,0,1-.25,1.1v0a15.36,15.36,0,0,1-1.47,3.57,5.24,5.24,0,0,1-1.3,1.49,2.54,2.54,0,0,0-.29.28,1.64,1.64,0,0,1-.69.51Z" style="fill:#422990"/><path d="M60,38.78a.18.18,0,0,1-.1-.33,1.17,1.17,0,0,0,.51-.76,2.6,2.6,0,0,1,.18-.49c0-.1.09-.19.14-.29l.1-.21a18.45,18.45,0,0,1,2.62-3.26A11.06,11.06,0,0,1,65,32.22l.45-.29a5.71,5.71,0,0,1,1-.58,10.55,10.55,0,0,0,2.82-1.62l.53-.42a3.77,3.77,0,0,0,1.09-1.09c.09-.13.17-.27.26-.41a3.88,3.88,0,0,0,.7-1.6c0-.11,0-.22,0-.33a4.32,4.32,0,0,0,.07-1,1.52,1.52,0,0,0-1.27-1.2,3.32,3.32,0,0,0-1.93.36c-.8.45-1.59,1-2.35,1.47l-.46.3-.83.56c-.37.25-.75.51-1.13.75a.93.93,0,0,1-.78.05,1.78,1.78,0,0,1-1.1-2,5.83,5.83,0,0,1,.66-1.85l.19-.4a9,9,0,0,1,.64-1.08c.12-.18.24-.37.35-.56s.18-.32.27-.48A7.15,7.15,0,0,1,65,19.59,11.24,11.24,0,0,0,66.23,18c.38-.61.75-1.24,1.1-1.86.26-.46.54-.94.82-1.4a6.2,6.2,0,0,0,1.06-3.35A7.72,7.72,0,0,1,69.32,10v0a13.35,13.35,0,0,0,0-3.52s0,0,0-.08a.45.45,0,0,1,.16-.55.35.35,0,0,1,.14-.06.18.18,0,0,1,.22.12.17.17,0,0,1-.12.22l-.06,0s0,0,0,.17a.52.52,0,0,1,0,.11,13.68,13.68,0,0,1,0,3.62v0a8.16,8.16,0,0,0-.12,1.3,6.49,6.49,0,0,1-1.11,3.54c-.27.46-.55.94-.81,1.4-.36.62-.72,1.26-1.11,1.87a11.28,11.28,0,0,1-1.26,1.64A5.92,5.92,0,0,0,64.5,21c-.09.16-.18.33-.28.49l-.36.58a7.74,7.74,0,0,0-.61,1l-.2.41a5.71,5.71,0,0,0-.63,1.73,1.42,1.42,0,0,0,.89,1.58.63.63,0,0,0,.45,0c.38-.24.75-.5,1.12-.75l.83-.56.46-.3c.77-.5,1.57-1,2.38-1.48a3.65,3.65,0,0,1,2.13-.41,1.9,1.9,0,0,1,1.6,1.53,4.87,4.87,0,0,1-.07,1.08c0,.11,0,.22,0,.32A4.19,4.19,0,0,1,71.41,28l-.25.41A4.14,4.14,0,0,1,70,29.59c-.17.13-.35.26-.51.4a10.59,10.59,0,0,1-2.92,1.69,6.55,6.55,0,0,0-.94.55l-.45.29a11.72,11.72,0,0,0-1.52,1.19,18.36,18.36,0,0,0-2.52,3.14,2.4,2.4,0,0,0-.11.23,2.29,2.29,0,0,0-.14.27,2.1,2.1,0,0,0-.15.42,1.51,1.51,0,0,1-.66,1A.19.19,0,0,1,60,38.78Z" style="fill:#422990"/><path d="M29,49.54a2.28,2.28,0,0,1-.77-.15,6.67,6.67,0,0,0-2.71-.49,4.46,4.46,0,0,1-1-.09L24,48.73c-.65,0-1.38-.09-2.1-.08l-.48,0a7.47,7.47,0,0,1-1.76-.06,6.73,6.73,0,0,0-.89-.1c-.25,0-.51,0-.76-.08-.52-.08-1.08-.19-1.71-.33a4.43,4.43,0,0,1-1.58-.87l-.2-.15a6.34,6.34,0,0,1-2.55-3.38,1.13,1.13,0,0,1,.07-1l.18-.26a3.56,3.56,0,0,1,.47-.63,1.81,1.81,0,0,1,2.28-.2,7,7,0,0,0,.85.36l.66.22.37.11.24.08a2.75,2.75,0,0,0,1.49.22.61.61,0,0,0,.52-.67,11,11,0,0,0-.33-1.23l0-.12A3,3,0,0,0,17.79,39c-.46-.36-.93-.69-1.4-1l-.15-.1a5.44,5.44,0,0,0-1-.58,20.62,20.62,0,0,1-2.9-1.16A6.39,6.39,0,0,0,11,35.69l-.64-.2-.49-.17c-.5-.17-1-.35-1.51-.55-.34-.13-.67-.29-1-.44s-.83-.38-1.26-.54A7.75,7.75,0,0,1,3.6,32.42a14.07,14.07,0,0,1-1.34-1.31,8.35,8.35,0,0,1-.65-.91l-.2-.3c-.29-.44-.53-.81-.75-1.17a.68.68,0,0,1-.07-.23s0-.08,0-.1a1.42,1.42,0,0,1-.38-1.07v-.1a1.3,1.3,0,0,0,0-.22,1.69,1.69,0,0,1,.23-1.76c.08-.11.16-.24.24-.37a3.54,3.54,0,0,1,.26-.41,2.2,2.2,0,0,0,.19-.3,1.29,1.29,0,0,1,1.07-.82h0a.44.44,0,0,1,.15-.1l.23-.09a2.29,2.29,0,0,1,.69-.2A10.46,10.46,0,0,1,5,23a2.92,2.92,0,0,1,1.14.31c.83.45,1.65.94,2.42,1.46a9.8,9.8,0,0,1,.88.68c.2.17.41.35.63.51.92.68,1.83,1.35,2.77,2a2.76,2.76,0,0,0,2.27.49l.11,0a1,1,0,0,1,1,.17.58.58,0,0,0,.37,0A1.73,1.73,0,0,1,17.73,28l.33-.07a.17.17,0,0,1,.22.12.18.18,0,0,1-.12.22l-.36.08a1.43,1.43,0,0,0-.94.46.43.43,0,0,1-.35.15.78.78,0,0,1-.54-.13c-.2-.19-.39-.15-.68-.08l-.13,0a3.14,3.14,0,0,1-2.54-.54c-.95-.64-1.86-1.31-2.79-2l-.64-.52A9.28,9.28,0,0,0,8.34,25c-.76-.51-1.57-1-2.39-1.44a2.63,2.63,0,0,0-1-.27,12.34,12.34,0,0,0-1.72,0,2.33,2.33,0,0,0-.57.18l-.25.09a0,0,0,0,0,0,0,.31.31,0,0,1-.22.11c-.41,0-.57.24-.8.64a3,3,0,0,1-.21.33c-.09.12-.16.25-.25.38a3.54,3.54,0,0,1-.26.41,1.33,1.33,0,0,0-.18,1.4,1.1,1.1,0,0,1,.05.35.19.19,0,0,0,0,.08,1.08,1.08,0,0,0,.26.84.52.52,0,0,1,.14.29.81.81,0,0,0,0,.11c.22.36.45.73.74,1.16l.2.31a6.83,6.83,0,0,0,.62.87,14.72,14.72,0,0,0,1.31,1.27,7.4,7.4,0,0,0,2.4,1.31c.44.16.87.36,1.29.55s.65.3,1,.43c.49.2,1,.37,1.49.54l.5.17.62.19a8,8,0,0,1,1.34.5A20.63,20.63,0,0,0,15.3,37a5.12,5.12,0,0,1,1.13.61l.16.1c.47.31.95.64,1.42,1a3.29,3.29,0,0,1,1,1.75l0,.12a11.18,11.18,0,0,1,.34,1.27,1,1,0,0,1-.8,1.09,3,3,0,0,1-1.67-.23l-.24-.08-.37-.11c-.22-.07-.45-.14-.68-.23a5.67,5.67,0,0,1-.89-.38,1.47,1.47,0,0,0-1.86.15,3,3,0,0,0-.42.56c-.06.09-.12.19-.19.28s-.1.42,0,.72a5.92,5.92,0,0,0,2.42,3.18l.2.15a3.9,3.9,0,0,0,1.44.81c.62.14,1.17.25,1.68.33l.73.07a7.52,7.52,0,0,1,.94.11,7.15,7.15,0,0,0,1.67.05h.49a20.76,20.76,0,0,1,2.13.08c.21,0,.43,0,.63.08a3.89,3.89,0,0,0,.88.08,7.15,7.15,0,0,1,2.85.51,1.55,1.55,0,0,0,1.05.07.19.19,0,0,1,.23.13.19.19,0,0,1-.13.22A1.68,1.68,0,0,1,29,49.54Zm-12.4-21ZM2.18,23.35Z" style="fill:#422990"/><path d="M66.76,75.18a4,4,0,0,1-.48,0c-.18,0-.37,0-.55-.06l-.31,0a4.46,4.46,0,0,1-2.71-.92A4.59,4.59,0,0,1,61.32,72c0-.1-.08-.21-.13-.33a1.79,1.79,0,0,1-.19-.52,7.93,7.93,0,0,1-.08-1c0-.14,0-.28,0-.42a.18.18,0,0,1,.17-.19.17.17,0,0,1,.19.16c0,.15,0,.29,0,.43a7,7,0,0,0,.07.92,2.07,2.07,0,0,0,.16.43,2.5,2.5,0,0,1,.15.38,4.22,4.22,0,0,0,1.29,2,4.09,4.09,0,0,0,2.5.84l.31,0,.57.05a4.86,4.86,0,0,0,1.61-.1.81.81,0,0,0,.69-.46,2,2,0,0,0-.24-2,12.27,12.27,0,0,0-1.47-1.89l-.4-.46-.16-.18a4.77,4.77,0,0,1-1.23-2,2.56,2.56,0,0,0-.39-.81,3.64,3.64,0,0,1-.49-1.57l-.06-.41a2.31,2.31,0,0,1,0-.94,10.29,10.29,0,0,0,.19-1.11,6.66,6.66,0,0,1,.52-2.12l.3-.63.74-1.53a.57.57,0,0,1,.19-.19s.07,0,.08-.06l.51-.55A6.77,6.77,0,0,0,68.5,55c0-.19.12-.37.18-.55a5.07,5.07,0,0,0,.22-.73,1.89,1.89,0,0,0,0-.42,1.89,1.89,0,0,1,0-.53,4.88,4.88,0,0,0,0-1.62,8,8,0,0,1,0-1.3,2.36,2.36,0,0,0-.07-.84l-.06-.19a18,18,0,0,0-.68-2,8.82,8.82,0,0,0-2.55-3.59c-.77-.59-1.53-1.24-2.27-1.86l-.6-.5a16.14,16.14,0,0,1-1.25-1.14,2.19,2.19,0,0,0-.89-.63c-.21-.08-.48-.19-.74-.31a6.15,6.15,0,0,1-3.18-2.62c-.08-.15-.19-.3-.29-.45a4.33,4.33,0,0,1-.41-.69c-.1-.25-.19-.51-.27-.76a7.34,7.34,0,0,0-.38-1,12.25,12.25,0,0,1-.67-1.68l-.27-.73-.13-.33a4.44,4.44,0,0,1-.24-.64c-.11-.38-.21-.77-.3-1.14-.06-.22-.11-.43-.16-.64l-.09-.28c0-.07,0-.14-.08-.22-.23-.77-.47-1.54-.7-2.32-.09-.29-.17-.57-.25-.86L52.32,24a.19.19,0,0,1,.13-.22.18.18,0,0,1,.22.12l.12.43c.08.29.17.57.25.86.23.77.47,1.55.71,2.32l.06.2a2.81,2.81,0,0,1,.1.31c.06.21.11.43.17.64.09.37.18.76.29,1.13a5.05,5.05,0,0,0,.23.61l.14.33c.09.25.18.5.26.75a15.43,15.43,0,0,0,.66,1.63,7.29,7.29,0,0,1,.4,1c.08.25.16.49.26.73a3.62,3.62,0,0,0,.37.62A5,5,0,0,1,57,36a5.8,5.8,0,0,0,3,2.47l.73.29a2.62,2.62,0,0,1,1,.72A13.77,13.77,0,0,0,63,40.61l.6.51c.73.62,1.49,1.26,2.26,1.84a9.13,9.13,0,0,1,2.65,3.74,14.75,14.75,0,0,1,.7,2l.06.19a2.63,2.63,0,0,1,.09,1,7.49,7.49,0,0,0,0,1.25,5.54,5.54,0,0,1,0,1.72,2.08,2.08,0,0,0,0,.44,1.75,1.75,0,0,1,0,.51c-.06.26-.15.52-.23.76s-.12.36-.17.54A7.25,7.25,0,0,1,66.94,58c-.17.18-.34.36-.5.55a.67.67,0,0,1-.14.11l-.08.06-.74,1.53-.3.62a6.79,6.79,0,0,0-.49,2c0,.37-.1.76-.19,1.14a2.21,2.21,0,0,0,0,.8c0,.14,0,.28.07.42A3.18,3.18,0,0,0,65,66.66a3.07,3.07,0,0,1,.44.93,4.46,4.46,0,0,0,1.15,1.88l.16.19.4.45a12.67,12.67,0,0,1,1.51,2A2.41,2.41,0,0,1,69,74.38,1.17,1.17,0,0,1,68,75,7.36,7.36,0,0,1,66.76,75.18Z" style="fill:#422990"/><path d="M43,27.91a.17.17,0,0,1-.17-.12,2.17,2.17,0,0,1-.07-.24,1.59,1.59,0,0,0-.16-.41,3.07,3.07,0,0,1-.52-1.44,4.27,4.27,0,0,0-.2-.82,7.69,7.69,0,0,1-.21-.79c0-.18-.08-.37-.13-.54s-.2-.59-.31-.88-.1-.27-.14-.4-.13-.35-.19-.53-.23-.67-.35-1c-.23-.6-.47-1.2-.7-1.79-.11-.29-.23-.58-.34-.86a.19.19,0,0,1,.1-.24.19.19,0,0,1,.24.11l.33.85c.24.6.47,1.2.7,1.8.13.34.25.68.36,1l.18.53.15.39c.1.3.22.6.31.91s.1.38.14.56a5.47,5.47,0,0,0,.2.75,4.69,4.69,0,0,1,.21.88,2.7,2.7,0,0,0,.45,1.28,1.53,1.53,0,0,1,.22.53l.06.22a.17.17,0,0,1-.11.23Z" style="fill:#422990"/><path d="M18.23,28a.17.17,0,0,1-.17-.16,7.81,7.81,0,0,0-.24-1.39c-.14-.49-.26-1-.37-1.48-.05-.18-.09-.37-.14-.55a2.58,2.58,0,0,1,0-.92,4.28,4.28,0,0,0,.05-.49,2.38,2.38,0,0,1,.35-1.19l0,0c.05-.11.11-.22.17-.33a2,2,0,0,1,.22-.32c.11-.14.22-.27.32-.41a6.67,6.67,0,0,1,1.05-1.14,15.25,15.25,0,0,1,1.34-.93c.38-.24.77-.49,1.13-.76a6.47,6.47,0,0,1,1.57-.8,8.72,8.72,0,0,0,1.12-.51A7.17,7.17,0,0,1,26.14,16l.58-.19,3.44-1.2c1.12-.38,2.38-.82,3.62-1.2.94-.3,1.91-.58,2.87-.84,1.29-.34,2.6-.66,3.87-1l.9-.22a5.83,5.83,0,0,1,.9-.15,5.91,5.91,0,0,0,1-.2l.3-.08a1.6,1.6,0,0,0,.64-.24.79.79,0,0,1,.45-.11l.16,0a.18.18,0,0,1,.2.15.18.18,0,0,1-.15.21h-.19a.8.8,0,0,0-.26.05,2,2,0,0,1-.77.3l-.28.07a6.26,6.26,0,0,1-1.1.21,7.71,7.71,0,0,0-.86.14l-.9.23c-1.27.31-2.59.64-3.87,1-1,.25-1.91.53-2.86.83-1.22.38-2.49.81-3.6,1.19s-2.43.85-3.44,1.21l-.59.19a7.18,7.18,0,0,0-1.4.56,9.37,9.37,0,0,1-1.17.53,6.13,6.13,0,0,0-1.49.75c-.37.28-.77.54-1.15.78a14.59,14.59,0,0,0-1.31.91,6.83,6.83,0,0,0-1,1.08c-.1.14-.21.28-.32.41a1.52,1.52,0,0,0-.19.28,3,3,0,0,0-.16.31L18,22a2,2,0,0,0-.32,1,2.41,2.41,0,0,1,0,.54,2.28,2.28,0,0,0,0,.78c.05.19.09.37.13.56.12.48.24,1,.37,1.47a8.18,8.18,0,0,1,.25,1.44.18.18,0,0,1-.16.2Z" style="fill:#422990"/><path d="M50.17,25a.18.18,0,0,1-.16-.1c-.13-.29-.25-.57-.38-.85-.28-.62-.57-1.26-.82-1.9-.18-.46-.34-.93-.49-1.39s-.4-1.18-.65-1.75-.63-1.31-1-1.94c-.15-.29-.31-.58-.46-.88a.18.18,0,0,1,.08-.24.19.19,0,0,1,.24.08c.15.29.3.58.46.87.34.64.69,1.29,1,2s.46,1.19.65,1.78.32.92.49,1.37c.25.63.54,1.27.82,1.88.12.29.25.57.38.85a.19.19,0,0,1-.1.24Z" style="fill:#422990"/><path d="M54.94,22.39h0a.19.19,0,0,1-.17-.19,9.83,9.83,0,0,0-.62-3.9l-.24-.46c-.09-.16-.18-.33-.26-.5l-.27-.58c-.49-1-1-2.07-1.46-3.12,0-.09-.06-.09-.19-.09h-.08a.18.18,0,1,1,0-.35h.07a.47.47,0,0,1,.5.3c.47,1,1,2.1,1.46,3.12l.28.58c.07.16.16.32.25.48l.24.47a10.19,10.19,0,0,1,.66,4.08A.18.18,0,0,1,54.94,22.39Z" style="fill:#422990"/><path d="M22.18,34.11a1.34,1.34,0,0,1-.69-.2,2,2,0,0,0-.79-.23,2,2,0,0,1-1.44-1.2,5.34,5.34,0,0,1-.51-1.43,6.39,6.39,0,0,0-.22-.78,1.86,1.86,0,0,1-.07-.57c0-.13,0-.25,0-.36a3.81,3.81,0,0,0-.24-.83l-.07-.12a.66.66,0,0,1-.13-.31.47.47,0,0,1,.1-.37.19.19,0,0,1,.25-.05.18.18,0,0,1,0,.25.15.15,0,0,0,0,.12.51.51,0,0,0,.08.17,1.29,1.29,0,0,1,.09.16,4.25,4.25,0,0,1,.27.91,2.93,2.93,0,0,1,0,.41,1.73,1.73,0,0,0,.06.47c.1.27.16.55.23.81a4.85,4.85,0,0,0,.47,1.34c.35.58.6.94,1.18,1a2.44,2.44,0,0,1,.93.28,1,1,0,0,0,.89.08A2.07,2.07,0,0,1,23,33.6a3,3,0,0,1,.67,0l.17,0a1.72,1.72,0,0,0,.54,0c.36-.08.73-.19,1.08-.29l.83-.23,1.82-.43.71-.16.23,0,.15,0,.41-.07a6,6,0,0,0,.74-.14l1.31-.4.8-.26a21.66,21.66,0,0,0,3.13-1.18l.17-.1a1.26,1.26,0,0,1,.56-.21.66.66,0,0,1,.28,0c.11,0,.18,0,.33-.1L37,30a1.85,1.85,0,0,1,.74-.43,11.07,11.07,0,0,0,2-.73c.43-.19.87-.39,1.32-.54s.6-.22.89-.33.63-.25,1-.36a4.41,4.41,0,0,1,.47-.14,15.26,15.26,0,0,0,1.71-.63l.43-.18.71-.32a10.32,10.32,0,0,1,1-.42,22.79,22.79,0,0,0,2.86-1.21l.68-.39A4.07,4.07,0,0,1,52,23.84l.11,0a2.44,2.44,0,0,0,.66-.34l.45-.3a10.25,10.25,0,0,1,1.69-1,4.47,4.47,0,0,1,.69-.25,2.53,2.53,0,0,0,1.11-.83l.39-.4c.22-.2.24-.41.08-.8-.06-.15-.12-.31-.19-.46a9.16,9.16,0,0,1-.42-1.18c0-.14-.08-.28-.13-.43a2.62,2.62,0,0,1-.2-1.22l0,0,0,0a.67.67,0,0,1-.09-.14c-.11-.24-.22-.48-.32-.72l-.35-.77c-.11-.24-.23-.48-.37-.73-.28-.53-.59-1.1-.91-1.66a2.61,2.61,0,0,0-.35-.47,1.49,1.49,0,0,0-.18-.17,1.06,1.06,0,0,1-.41-.56.56.56,0,0,0-.28-.16,7.77,7.77,0,0,0-1.21-.24,2.17,2.17,0,0,1-1-.36,2.17,2.17,0,0,0-1.8-.44l-.12,0a1.91,1.91,0,0,1-.88.08,1.27,1.27,0,0,0-.59.12l-.32.1-.08,0a.53.53,0,0,1-.2,0h-.35a5.11,5.11,0,0,0-.58,0,1.89,1.89,0,0,0-.64.28.18.18,0,0,1-.24-.06.17.17,0,0,1,.06-.25,2.3,2.3,0,0,1,.75-.32,3.49,3.49,0,0,1,.64,0h.34l.09,0,.12,0,.29-.09A1.53,1.53,0,0,1,48,9.87a1.59,1.59,0,0,0,.72-.07l.12,0a2.44,2.44,0,0,1,2.09.48,1.75,1.75,0,0,0,.88.3,7.55,7.55,0,0,1,1.27.26c.15,0,.46.18.52.41a.91.91,0,0,0,.3.38,2.13,2.13,0,0,1,.22.21,3,3,0,0,1,.39.53c.32.56.63,1.12.92,1.66.14.26.27.51.38.75l.34.78.32.71,0,.06,0,0a.3.3,0,0,1,.11.28,2.2,2.2,0,0,0,.18,1.09,3.33,3.33,0,0,1,.13.45,9.56,9.56,0,0,0,.41,1.13l.2.47a1,1,0,0,1-.17,1.19c-.13.12-.25.25-.38.38a2.79,2.79,0,0,1-1.28.93,4.88,4.88,0,0,0-.63.23,10.51,10.51,0,0,0-1.64,1l-.45.31a2.7,2.7,0,0,1-.76.38l-.12,0a3.82,3.82,0,0,0-1.11.47c-.22.14-.45.27-.71.41a22.82,22.82,0,0,1-2.9,1.22c-.31.12-.63.27-.93.41s-.48.23-.72.33l-.44.18a14.43,14.43,0,0,1-1.74.64l-.46.14-.94.35-.9.34c-.44.15-.88.34-1.3.53a11,11,0,0,1-2.09.75,1.65,1.65,0,0,0-.59.36l-.12.09a.65.65,0,0,1-.68.15.3.3,0,0,0-.13,0,.89.89,0,0,0-.4.16l-.19.11A24.07,24.07,0,0,1,32.56,32l-.8.25c-.43.13-.88.28-1.33.4a5.4,5.4,0,0,1-.78.16l-.39.06-.14,0-.23.05-.71.16-1.81.42-.82.23c-.36.11-.73.22-1.1.3a2,2,0,0,1-.69,0l-.16,0A2.84,2.84,0,0,0,23,34a1.28,1.28,0,0,0-.34.07A1.51,1.51,0,0,1,22.18,34.11ZM56.25,16.54h0Z" style="fill:#422990"/><path d="M29.06,32.84a.17.17,0,0,1-.17-.13c0-.11-.07-.21-.1-.32a7,7,0,0,1-.19-.69c-.06-.26-.11-.53-.16-.8s-.11-.6-.18-.89c-.12-.5-.24-1-.37-1.5-.08-.33-.17-.66-.25-1s-.15-.66-.23-1c-.13-.59-.27-1.19-.44-1.78s-.29-.94-.44-1.4c-.1-.29-.2-.59-.29-.88a.85.85,0,0,1,0-.73.46.46,0,0,1,.17-.17A4.34,4.34,0,0,1,28,20.86c.53-.09,1.07-.23,1.59-.36l.14,0c1-.27,2.21-.58,3.38-.91l.38-.1.09,0c1-.26,1.87-.55,2.73-.83a2.65,2.65,0,0,0,.44-.17,3.52,3.52,0,0,1,.67-.23A5.45,5.45,0,0,0,38,18a2.88,2.88,0,0,1,1.25-.24h.11l.21,0a2.22,2.22,0,0,1,1.16-.48,3.88,3.88,0,0,0,.49-.11c.5-.16,1-.29,1.52-.42s1.23-.32,1.82-.52a5.33,5.33,0,0,1,.92-.22c.28-.06.54-.1.79-.18a2.7,2.7,0,0,0,.64-.29,8.33,8.33,0,0,1,1.33-.68c.26-.11.53-.22.78-.35l.42-.21a7.68,7.68,0,0,0,1.45-.83c.14-.11.34-.23.57-.38.7-.44,1.66-1,1.72-1.87a.18.18,0,0,1,.2-.16.17.17,0,0,1,.16.19c-.08,1-1.12,1.66-1.89,2.14a5.41,5.41,0,0,0-.54.37,8.7,8.7,0,0,1-1.51.87l-.42.2c-.26.13-.53.25-.79.36a8.2,8.2,0,0,0-1.29.65,3.41,3.41,0,0,1-.72.33,8.27,8.27,0,0,1-.83.19,5,5,0,0,0-.87.21c-.61.2-1.24.37-1.85.52s-1,.27-1.51.42a3.25,3.25,0,0,1-.52.12,1.88,1.88,0,0,0-1,.4.24.24,0,0,1-.13.07,1.09,1.09,0,0,1-.36,0l-.09,0a2.68,2.68,0,0,0-1.1.23c-.22.07-.44.15-.67.2a2.86,2.86,0,0,0-.6.21,3.8,3.8,0,0,1-.47.18c-.87.28-1.79.57-2.74.83l-.1,0-.38.11-3.38.9-.14,0c-.53.14-1.07.28-1.62.38a3.93,3.93,0,0,0-1.42.65.23.23,0,0,0-.07.07.56.56,0,0,0,0,.42c.09.29.19.58.29.87.15.47.32.94.45,1.42s.3,1.21.44,1.8c.08.33.15.66.23,1s.16.65.25,1c.12.49.25,1,.37,1.51.07.3.13.61.18.91s.1.53.16.79.12.44.18.66a3,3,0,0,1,.1.32.17.17,0,0,1-.12.22ZM39.61,17.78Z" style="fill:#422990"/><path d="M23,33.9a.17.17,0,0,1-.16-.12c-.06-.16-.12-.33-.17-.49-.15-.4-.29-.82-.41-1.25-.18-.61-.31-1.24-.44-1.86l0-.09c-.06-.28-.11-.57-.15-.84s0-.28-.07-.42c0-.32-.13-.66-.21-1a12.43,12.43,0,0,1-.33-2,.18.18,0,0,1,.17-.18.17.17,0,0,1,.19.17,11,11,0,0,0,.32,2c.08.36.16.71.22,1l.06.42c.05.27.09.55.15.82l0,.1c.13.61.26,1.23.43,1.84.12.41.26.82.4,1.22.06.17.12.33.17.49a.17.17,0,0,1-.11.23Z" style="fill:#422990"/><path d="M49.76,38.65h0a.19.19,0,0,1-.15-.21,1.12,1.12,0,0,0-.1-.73,2.57,2.57,0,0,0-.66-.74,4.22,4.22,0,0,1-1.51-2.27,3.84,3.84,0,0,1-.09-1.79,2.05,2.05,0,0,1,.9-1.17.64.64,0,0,1,.9.1,4,4,0,0,0,.29.29,3.78,3.78,0,0,1,.5.56,11,11,0,0,1,.8,1.34,1.62,1.62,0,0,1,.1.18,2.25,2.25,0,0,1,.36,1,6.21,6.21,0,0,1-.24,1.66,1.08,1.08,0,0,1-.65.67l-.2.11-.11.08a1.48,1.48,0,0,1,.06.79A.17.17,0,0,1,49.76,38.65ZM48.53,32a.35.35,0,0,0-.2.07,1.73,1.73,0,0,0-.77,1,3.6,3.6,0,0,0,.1,1.63,3.85,3.85,0,0,0,1.4,2.08,3.44,3.44,0,0,1,.64.68l.09-.06L50,37.2c.23-.12.43-.22.48-.43a6.26,6.26,0,0,0,.22-1.57,2.08,2.08,0,0,0-.31-.82,1.62,1.62,0,0,1-.1-.18,10.89,10.89,0,0,0-.78-1.3,4.32,4.32,0,0,0-.46-.51c-.1-.1-.21-.21-.3-.32A.33.33,0,0,0,48.53,32Z" style="fill:#422990"/><path d="M32.94,44.29a.18.18,0,0,1-.18-.16,2.48,2.48,0,0,0-.19-.87,1.18,1.18,0,0,0-.23-.32,1.44,1.44,0,0,1-.27-.42,1.74,1.74,0,0,0-.1-.19l-.15-.27a4.49,4.49,0,0,0-.37-.61,4.85,4.85,0,0,1-1-1.63,4.33,4.33,0,0,1-.25-2.34,1,1,0,0,1,.59-.83,1,1,0,0,1,1,.24,3.83,3.83,0,0,0,.29.28A11.3,11.3,0,0,1,33,38a3.53,3.53,0,0,1,.65,1,6,6,0,0,1,.26.89c0,.18.08.36.13.53a2.35,2.35,0,0,1-1,2.82,3.81,3.81,0,0,1,.16.82.19.19,0,0,1-.16.2ZM31.15,37a.52.52,0,0,0-.21,0c-.19.06-.28.2-.35.56a4,4,0,0,0,.24,2.15,4.42,4.42,0,0,0,.89,1.52,3.94,3.94,0,0,1,.42.67c0,.09.09.18.14.26a2.12,2.12,0,0,1,.11.21,1.16,1.16,0,0,0,.2.33,1.71,1.71,0,0,1,.21.26,2,2,0,0,0,.86-2.4c0-.18-.1-.37-.14-.55a7.41,7.41,0,0,0-.24-.84,3.62,3.62,0,0,0-.59-.9,10.58,10.58,0,0,0-.81-.83l-.29-.28A.62.62,0,0,0,31.15,37Z" style="fill:#422990"/><path d="M20.39,22.89a4.41,4.41,0,0,1-.52,0,1.53,1.53,0,0,1-1.21-.67,2.21,2.21,0,0,0-.29-.33l-.14-.15a.17.17,0,0,1,0-.25.18.18,0,0,1,.25,0l.14.14A3.11,3.11,0,0,1,19,22a1.16,1.16,0,0,0,.95.51,5.2,5.2,0,0,0,1.12,0l.48-.05.65-.07a2.05,2.05,0,0,0,.67-.23,3.25,3.25,0,0,1,.54-.23,16.41,16.41,0,0,1,2-.45,1.86,1.86,0,0,1,.74.08l.3.07a.18.18,0,1,1-.05.35L26,21.9a2,2,0,0,0-.61-.08,14.32,14.32,0,0,0-1.93.45,2.45,2.45,0,0,0-.48.2,2.61,2.61,0,0,1-.8.27c-.22,0-.43,0-.64.06l-.49.05A5.44,5.44,0,0,1,20.39,22.89Z" style="fill:#422990"/><path d="M36.32,30.48a.16.16,0,0,1-.15-.09c0-.05-.07-.1-.1-.16s-.16-.25-.24-.39l-.09-.15a2,2,0,0,1-.25-.56c-.08-.34-.15-.69-.22-1s-.16-.77-.25-1.15-.26-.92-.4-1.36c-.07-.24-.15-.47-.21-.71-.18-.6-.37-1.23-.54-1.87l0-.05c-.11-.43-.24-.88-.31-1.33a3,3,0,0,0-.31-.95,1.76,1.76,0,0,1-.18-.59L33,19.85a.19.19,0,0,1,.13-.22.18.18,0,0,1,.22.13l.06.25a1.76,1.76,0,0,0,.14.49,3,3,0,0,1,.35,1.06,12.25,12.25,0,0,0,.31,1.3v.05c.17.63.36,1.26.54,1.86l.21.7c.14.45.29.92.41,1.39s.17.78.25,1.17.14.68.22,1a1.7,1.7,0,0,0,.21.46l.1.16a2.77,2.77,0,0,0,.22.37l.1.16a.18.18,0,0,1-.06.25A.16.16,0,0,1,36.32,30.48Z" style="fill:#422990"/><path d="M21.22,26a.17.17,0,0,1-.17-.15,2.74,2.74,0,0,1-.05-.28,5.67,5.67,0,0,0-.12-.62,3.14,3.14,0,0,1,0-1.22,3.2,3.2,0,0,0,0-.87.18.18,0,1,1,.35-.05,3.84,3.84,0,0,1,0,1,2.66,2.66,0,0,0,0,1.09,5.34,5.34,0,0,1,.13.65c0,.09,0,.19,0,.28a.18.18,0,0,1-.15.2Z" style="fill:#422990"/></svg>